<?xml version="1.0" encoding="UTF-8"?><svg id="_レイヤー_2" xmlns="http://www.w3.org/2000/svg" viewBox="0 0 1416.1 1000"><defs><style>.cls-1{fill:#231815;}.cls-2{fill:#040000;}</style></defs><g id="_レイヤー_1-2"><path class="cls-2" d="M707.32,610.24c-10.38-95.02-65.19-226.52-141.18-236.37,16.99-15.85,40.04-23.48,63.13-20.91,18.7-36.29,51.15-49.7,88.51-46.16,39.01,3.7,79.77,39.56,104.21,90.13,18.66,38.64,40.8,62.74,65.23,75.47,16.41,8.55,36.48,5.36,49.44-7.84l132.51-135.02c12.17-12.4,16.55-30.93,11.18-47.7-5.38-16.78-19.38-29.03-36.36-31.66l-203.28-30.93-90.96-193c-7.5-16.05-23.34-26.26-40.74-26.26s-33.1,10.21-40.74,26.26l-90.96,193-203.14,30.93c-16.98,2.63-31.12,14.88-36.36,31.66-5.23,16.78-.99,35.3,11.18,47.7l147.4,150.4-34.8,212.55c-2.83,17.51,4.24,35.3,18.25,45.66,14,10.36,32.54,11.67,47.81,3.36l156.64-86.92c15.89-8.82,25.01-26.29,23.04-44.36Z"/><path class="cls-1" d="M767.23,981.1c-.46,5.3-1.27,8.24-3.4,11.7-1.79,3.05-3.8,5.01-7.32,7.2-1.15-1.5-1.56-1.9-2.71-2.65,1.09-.58,1.44-.75,2.3-1.38-1.15-.12-2.71-.17-4.84-.17h-11.93v3.46h-3.63c.29-1.61.4-3.29.4-5.94v-13.95c0-1.56,0-3,.12-4.73-1.38,1.79-2.42,2.88-4.55,4.9-.75-1.33-1.27-1.96-2.08-2.65,4.84-3.98,7.61-7.38,10.37-12.79h-3.57c-2.19,0-3.63.12-4.84.35v-3.52c1.33.23,2.54.29,4.73.29h5.01c.75-1.96,1.33-3.63,1.9-5.82h-5.01c-1.5,2.36-2.36,3.4-3.98,5.19-.98-.81-1.61-1.27-2.82-1.79,3.69-3.57,5.82-6.92,7.03-11.24l3.46,1.04c-.81,1.73-1.15,2.48-1.96,3.92h10.89c2.54,0,4.03-.12,5.36-.35v3.52c-1.73-.23-2.94-.29-5.24-.29h-4.32c-.75,2.59-1.21,3.98-1.9,5.82h7.95c2.31,0,3.57-.06,4.73-.29v3.46c-1.5-.23-2.94-.29-4.73-.29h-9.22c-1.04,2.19-1.67,3.28-3.46,6.05h6.05c1.04-1.73,1.67-3.05,2.42-5.07l3.11.98c-.81,1.44-1.38,2.48-2.42,4.09h3.17c2.65,0,3.69-.06,4.73-.23v3.23c-1.21-.17-2.71-.23-4.73-.23h-3.34v4.61h2.31c2.42,0,3.69-.06,4.67-.23v3.17c-1.15-.17-2.59-.23-4.67-.23h-2.31v4.84h2.25c2.54,0,3.75-.06,4.73-.23v3.17c-1.04-.17-2.42-.23-4.73-.23h-2.25v5.24h2.48c2.82,0,3.8-.06,4.78-.23v3.11c2.42-1.73,3.98-3.4,5.25-5.65,1.56-2.71,2.13-4.9,2.36-9.16h-.75c-1.67,0-2.71.06-3.98.17.17-1.38.23-2.48.23-5.65v-20.4c0-2.77-.06-4.15-.29-5.71,1.67.23,3.05.29,5.48.29h11.18c2.71,0,3.92-.06,5.59-.29-.17,1.84-.23,3.4-.23,6.05v20.34c0,2.65.06,4.03.23,5.42-1.5-.17-2.42-.23-5.24-.23h-1.21v12.97c0,1.04.46,1.33,2.48,1.33,2.54,0,3.63-.23,3.98-.86.52-.75.75-3,.81-7.49,1.21.81,1.9,1.15,3.11,1.56-.63,9.45-1.09,10.09-7.95,10.09-4.55,0-5.76-.81-5.76-3.98v-13.6h-4.27ZM746.03,977.52v-4.61h-6.69v4.61h6.69ZM739.34,985.07h6.69v-4.84h-6.69v4.84ZM739.34,993.03h6.69v-5.24h-6.69v5.24ZM762.62,959.2h15.1v-6.34h-15.1v6.34ZM762.62,968.48h15.1v-6.28h-15.1v6.28ZM762.62,978.21h15.1v-6.74h-15.1v6.74Z"/><path class="cls-1" d="M857.32,956.66h7.55c2.25-.06,3.46-.06,3.69-.06,1.04,0,1.21-.06,2.13-.23l1.79,1.96q-.81,1.44-2.02,3.75c-.23.4-.58,1.04-1.33,2.31-1.09-.75-1.56-.98-2.82-1.44.98-1.21,1.5-2.02,2.25-3.52h-12.16v3.4l4.96-.58c1.84-.17,2.94-.4,4.09-.75l.23,3h-.52c-.92,0-1.5.06-3.8.29l-4.96.58v1.38c0,1.27.46,1.38,4.84,1.38,6.46,0,6.69-.12,7.38-3.4,1.09.75,1.67,1.04,2.77,1.38-1.15,4.15-1.9,4.5-9.97,4.5-7.43,0-8.24-.35-8.24-3.63v-1.27l-1.73.17c-1.79.23-3.23.52-4.21.81l-.29-3.11c.4.06.63.06.86.06.69,0,1.79-.06,3.63-.29l1.73-.17v-3.75h-7.15v3.98c0,18.56-1.44,27.43-5.71,35.79-.75-1.09-1.56-1.9-2.82-2.94,1.73-2.88,2.59-5.36,3.46-9.39,1.15-5.36,1.67-12.62,1.67-22.48,0-4.09-.06-5.88-.29-8.01,1.61.23,3.29.29,5.88.29h5.65v-4.9c0-1.84-.12-3.23-.35-4.5h4.15c-.23,1.04-.29,1.61-.35,3.34h6.97c2.48,0,3.69-.06,4.84-.35v3.34c-1.5-.23-2.42-.29-4.9-.29h-6.92v3.34ZM871.44,979.37c-2.88,2.88-4.55,4.26-7.32,6.17,2.36,2.71,5.88,5.59,9.85,7.9-.86,1.04-1.44,1.9-1.96,3.11-3.46-2.59-5.71-4.78-7.78-7.67.12,1.1.17,1.79.17,2.71,0,3.05-.58,5.47-1.44,6.46-.92.92-2.25,1.33-4.55,1.33-1.21,0-2.65-.06-4.26-.17-.17-1.21-.35-1.84-.81-3.17,2.02.29,3.57.46,4.73.46,2.59,0,3.4-.98,3.4-4.26,0-.81-.06-1.44-.17-2.48-4.26,3.23-8.36,5.59-14.87,8.53-.63-1.1-.69-1.15-2.08-2.65,7.26-2.59,11.81-5.01,16.48-8.7-.4-1.44-.58-2.02-1.1-3.11-4.38,3.11-6.92,4.5-12.74,6.8-.4-.92-.98-1.73-1.67-2.54,5.99-1.96,8.76-3.34,13.03-6.46-.81-.98-1.09-1.21-1.96-1.84-2.54,1.5-4.26,2.3-8.36,3.92-.35-.98-.75-1.56-1.61-2.59,5.13-1.38,8.13-2.77,11.41-5.36h-5.82c-2.25,0-3.46.06-4.73.29v-3.29c1.15.23,2.36.29,4.9.29h14.47c2.65,0,3.86-.06,4.96-.29v3.29c-1.04-.23-2.31-.29-4.84-.29h-4.78c-1.67,1.44-2.19,1.84-3.29,2.59,1.56,1.1,2.65,2.54,3.86,4.96,2.65-1.73,4.44-3.46,6.11-5.94l2.77,2.02ZM878.99,951.88c-.23,1.56-.29,3.05-.29,6.28v22.07c0,3.8.06,4.96.29,6.46h-4.09c.23-1.56.29-2.94.29-6.46v-22.07c0-3.46-.06-4.84-.29-6.28h4.09ZM889.77,948.07c-.29,1.61-.4,3.69-.4,6.97v38.84c0,3-.4,3.92-2.07,4.5-1.04.4-2.54.58-4.38.58-1.5,0-3.69-.06-5.07-.17-.29-1.79-.46-2.31-1.04-3.63,1.9.35,4.21.52,6.34.52s2.65-.29,2.65-1.73v-38.96c0-3.52-.12-5.3-.4-6.92h4.38Z"/><path class="cls-1" d="M956.8,990.72v4.09h-4.44c.17-1.27.23-2.42.23-4.32v-31.29c0-2.36-.06-3.11-.23-4.5,1.15.12,2.25.17,4.5.17h30.72c2.48,0,3.17,0,4.5-.17-.17,1.38-.17,2.13-.17,4.5v31.18c0,1.73.06,3.23.17,4.44h-4.38v-4.09h-30.89ZM987.69,958.68h-30.89v28.3h30.89v-28.3Z"/><path class="cls-1" d="M1077.95,950.03c-.52.75-.58.81-1.27,2.36-1.44,2.94-2.07,4.26-2.65,5.07.46-.12.98-.17,2.08-.17l13.95-.23c2.02-.06,2.19-.06,3-.4l3.46,3.63c-.46.63-.52.75-.98,2.25-5.3,16.94-15.33,28.24-31.35,35.39-.87-1.56-1.44-2.31-2.88-3.4,14.98-5.76,25.82-17.87,30.26-33.83l-19.42.29c-3.17,5.24-8.65,11.3-13.77,14.98-.98-1.38-1.56-1.96-3.23-2.94,5.65-3.57,10.26-8.64,14.47-15.85,2.31-3.98,3.52-6.86,3.63-8.36l4.73,1.21ZM1095.76,948.19c2.82,3.34,4.09,5.25,5.88,8.7l-2.88,1.73c-1.44-3-4.03-6.97-5.88-8.88l2.88-1.56ZM1102.21,944.96c2.88,3.52,3.86,5.01,5.94,8.76l-2.88,1.67c-1.38-2.88-3.46-6.05-5.88-8.82l2.82-1.61Z"/><path class="cls-1" d="M1187.63,962.94q-.17,1.04-.23,4.03c-.17,9.62-1.79,15.33-5.71,20.29-3.51,4.44-7.78,7.32-14.75,9.97-.86-1.84-1.27-2.42-2.65-3.86,4.67-1.38,7.55-2.82,10.55-5.3,6.11-4.9,8.36-10.78,8.36-22.02,0-1.61-.06-2.02-.23-3.11h4.67ZM1210.4,955.68c-.58.75-.69.92-1.38,2.31-3.98,7.72-9.34,12.97-16.83,16.42-.86-1.44-1.33-1.96-2.82-3.29,4.03-1.56,6.4-2.94,9.11-5.47,2.65-2.48,4.78-5.3,6.46-8.59h-32.74c-3.17,0-4.67.06-6.8.29v-4.44c1.96.29,3.57.4,6.86.4h30.95q3.86,0,4.9-.4l2.3,2.77Z"/><path class="cls-1" d="M1309.01,955.16c-.17-.63-.23-1.15-.23-1.67,0-3.63,2.94-6.57,6.57-6.57s6.51,2.94,6.51,6.51-2.94,6.57-6.57,6.57c-.63,0-1.21-.06-2.02-.29l-.12.35c-2.82,10.26-6.51,17.46-11.76,22.94-5.99,6.28-12.51,10.49-20.98,13.66-.81-1.79-1.44-2.59-2.82-3.98,7.72-2.13,15.91-7.2,21.09-13.08,4.73-5.36,8.07-12.1,10.09-20.52h-29.33c-3.34,0-4.73.12-6.46.35v-4.61c2.08.29,3.4.35,6.51.35h29.51ZM1311.2,953.43c0,2.3,1.84,4.15,4.15,4.15s4.09-1.84,4.09-4.15-1.84-4.09-4.09-4.09-4.15,1.84-4.15,4.09Z"/><path class="cls-1" d="M1390.57,950.96c-.17,1.38-.23,2.13-.23,4.78v15.5c0,2.77.06,3.4.23,4.78h-4.78c.17-1.33.23-2.54.23-4.84v-15.39c0-2.48-.06-3.46-.23-4.84h4.78ZM1416.1,950.96c-.23,1.33-.29,2.25-.29,5.01v6.8c0,9.16-.4,14.24-1.44,17.58-1.67,5.42-5.3,9.62-10.95,12.79-2.82,1.61-5.59,2.71-10.49,4.15-.63-1.67-.98-2.25-2.42-3.98,5.19-1.15,7.95-2.13,10.95-3.92,5.36-3.11,8.13-6.8,9.22-12.16.63-3.29.81-5.94.81-14.7v-6.51c0-3-.06-3.8-.23-5.07h4.84Z"/><path class="cls-1" d="M16.97,971.7c-.23.63-.23.69-.98,3.4-2.13,7.84-5.3,14.06-10.09,19.94-1.38-1.27-1.96-1.61-3.8-2.48,2.54-2.59,3.8-4.32,5.47-7.49,2.71-5.07,4.67-10.66,5.01-14.52l4.38,1.15ZM25.04,957.58c0-3-.06-4.38-.35-5.88h4.73c-.23,1.56-.29,2.59-.29,5.99v3.75h14.52c3.34,0,4.73-.06,6.74-.35v4.38c-1.96-.23-3.57-.29-6.63-.29h-14.64v28.7c0,3.17.06,4.61.29,6.11h-4.73c.29-1.5.35-3.05.35-6.05v-28.76h-14.12c-3.05,0-4.67.06-6.63.29v-4.38c2.02.29,3.4.35,6.68.35h14.06v-3.86ZM41.23,970.61c.35,1.73.92,3.34,2.13,6.45,2.65,6.74,5.07,10.95,8.93,15.45-1.67.92-2.19,1.33-3.63,2.71-2.71-3.69-4.15-6.05-5.99-9.85-1.38-2.88-3.11-7.09-4.03-9.91-.63-1.84-.98-2.77-1.44-3.75l4.04-1.09Z"/><path class="cls-1" d="M116.28,967.26c5.47,2.25,9.62,4.38,14.64,7.55l-2.25,3.86c-4.21-3.05-9.45-5.94-14.7-7.9l2.31-3.52ZM114.78,993.6c3.75,0,9.74-1.38,15.5-3.57,7.15-2.71,12.62-6.8,17.29-12.85,3.23-4.21,5.13-7.84,6.92-12.91,1.44,1.5,2.02,2.02,3.57,3.05-5.01,11.99-12.04,19.83-22.19,24.84-4.03,2.02-9.85,3.98-14.58,4.96-.92.17-1.96.4-3.11.63-1.15.23-1.38.35-2.25.63l-1.15-4.78ZM120.77,953.49c5.65,2.31,9.39,4.21,14.29,7.26l-2.36,3.86c-3.98-2.94-9.97-6.17-14.18-7.61l2.25-3.52Z"/><path class="cls-1" d="M229.93,999.6c.23-1.33.29-2.54.35-6.05v-35.79c-.06-3.63-.12-4.61-.35-5.88h4.96c-.23,1.33-.29,2.42-.29,5.99v10.78c8.24,2.94,16.19,6.69,25.65,12.16l-2.48,4.27c-4.32-3.23-13.37-8.01-21.5-11.41-.81-.35-1.27-.58-1.79-.98l-.12.06c.17,1.04.23,1.96.23,3.4v17.35c0,3.46.06,4.73.29,6.11h-4.96ZM252.06,954.18c2.59,3.11,4.21,5.53,5.94,8.93l-2.88,1.73c-1.44-3.05-4.21-7.38-5.94-9.16l2.88-1.5ZM258.58,951.01c2.59,3.23,4.03,5.36,5.94,8.99l-2.88,1.67c-1.21-2.77-3.63-6.46-5.88-9.11l2.82-1.56Z"/><path class="cls-1" d="M338.4,953.32c-.17,1.38-.23,2.13-.23,4.78v15.5c0,2.77.06,3.4.23,4.78h-4.78c.17-1.33.23-2.54.23-4.84v-15.39c0-2.48-.06-3.46-.23-4.84h4.78ZM363.94,953.32c-.23,1.33-.29,2.25-.29,5.01v6.8c0,9.16-.4,14.24-1.44,17.58-1.67,5.42-5.3,9.62-10.95,12.79-2.82,1.61-5.59,2.71-10.49,4.15-.63-1.67-.98-2.25-2.42-3.98,5.19-1.15,7.95-2.13,10.95-3.92,5.36-3.11,8.13-6.8,9.22-12.16.63-3.29.81-5.94.81-14.7v-6.51c0-3-.06-3.8-.23-5.07h4.84Z"/><path class="cls-1" d="M0,753.8h44.55v60.17h57.19v-60.17h44.55v160.76h-44.55v-61.09h-57.19v61.09H0v-160.76Z"/><path class="cls-1" d="M178.45,834.64v-.46c0-46.16,37.2-83.6,86.81-83.6s86.35,36.98,86.35,83.14v.46c0,46.16-37.21,83.6-86.81,83.6s-86.35-36.97-86.35-83.14ZM306.14,834.64v-.46c0-23.2-16.76-43.41-41.34-43.41s-40.65,19.75-40.65,42.95v.46c0,23.2,16.76,43.41,41.11,43.41s40.88-19.75,40.88-42.95Z"/><path class="cls-1" d="M371.82,890.68l24.8-29.63c15.85,12.63,33.53,19.29,52.13,19.29,11.94,0,18.37-4.13,18.37-11.02v-.46c0-6.66-5.28-10.33-27.1-15.39-34.22-7.81-60.63-17.45-60.63-50.53v-.46c0-29.86,23.66-51.44,62.24-51.44,27.33,0,48.69,7.35,66.14,21.36l-22.28,31.46c-14.7-10.33-30.77-15.85-45.01-15.85-10.79,0-16.08,4.59-16.08,10.33v.46c0,7.35,5.51,10.56,27.79,15.62,36.97,8.04,59.94,19.98,59.94,50.07v.46c0,32.84-25.95,52.36-64.99,52.36-28.48,0-55.58-8.96-75.33-26.64Z"/><path class="cls-1" d="M542.92,753.8h44.55v60.17h57.19v-60.17h44.55v160.76h-44.55v-61.09h-57.19v61.09h-44.55v-160.76Z"/><path class="cls-1" d="M727.8,753.8h44.78v160.76h-44.78v-160.76Z"/><path class="cls-1" d="M811.16,753.8h62.01c57.42,0,90.72,33.07,90.72,79.46v.46c0,46.39-33.76,80.84-91.63,80.84h-61.09v-160.76ZM873.86,875.06c26.64,0,44.32-14.7,44.32-40.65v-.46c0-25.72-17.68-40.65-44.32-40.65h-18.14v81.76h18.14Z"/><path class="cls-1" d="M990.53,834.64v-.46c0-46.16,37.2-83.6,86.81-83.6s86.35,36.98,86.35,83.14v.46c0,46.16-37.21,83.6-86.81,83.6s-86.35-36.97-86.35-83.14ZM1118.22,834.64v-.46c0-23.2-16.76-43.41-41.34-43.41s-40.65,19.75-40.65,42.95v.46c0,23.2,16.76,43.41,41.11,43.41s40.88-19.75,40.88-42.95Z"/><path class="cls-1" d="M1196.08,753.8h76.02c24.57,0,41.57,6.43,52.36,17.45,9.42,9.19,14.24,21.59,14.24,37.43v.46c0,24.57-13.09,40.88-33.07,49.38l38.35,56.04h-51.44l-32.38-48.69h-19.52v48.69h-44.55v-160.76ZM1270.03,830.97c15.16,0,23.88-7.35,23.88-19.06v-.46c0-12.63-9.19-19.06-24.11-19.06h-29.17v38.58h29.4Z"/><path class="cls-1" d="M1371.31,753.8h44.78v160.76h-44.78v-160.76Z"/></g></svg>