<?xml version="1.0" encoding="UTF-8"?><svg id="_レイヤー_2" xmlns="http://www.w3.org/2000/svg" viewBox="0 0 100 100"><defs><style>.cls-1{fill:#fff;}</style></defs><g id="_レイヤー_1-2"><circle cx="50" cy="50" r="50"/><path class="cls-1" d="M55.43,36.79v12.3h-12.98v2.11h12.53v20.75c0,8.15-5.81,8.38-10.64,8.38,0-4.23-.83-6.34-1.89-8.83v13.73h-12.53v-22.64h-2.41v17.73h-11.47v-29.12h13.88v-2.11h-15.02v-12.3h7.02c-1.74-1.13-5.36-2.94-8.98-4.15,3.24-6.79,3.77-13.51,4-17.58l11.62,2.49c.6.15,1.21.45,1.21,1.13,0,.75-.68,1.13-2.49,1.51-.08,1.58-.15,2.04-.3,3.32h2.94v-8.75l12.9.3c.98,0,1.74.15,1.74,1.21,0,1.13-.98,1.36-2.11,1.66v4.75h12.53v12h-12.53v2.11h12.98ZM29.93,36.79v-2.11h-5.13c-.38,1.13-.53,1.51-.75,2.11h5.89ZM42.46,67.66c.68.23,1.06.3,1.36.3.68,0,.68-.15.68-1.28v-4.07h-2.04v5.06ZM70.98,14.84l13.2.53c.23,0,1.58.23,1.58,1.43,0,.45-.3.83-1.58,1.51v53.27c0,8.98-1.13,13.66-12.53,13.66h-5.58c-.08-4.98-2.11-10.56-4.98-13.66,2.64.3,4.75.6,6.87.6,2.72,0,3.02-.83,3.02-2.42V24.65c-.23.68-.53.91-1.96,1.66v42.93h-12.07V22.69l12.07.3c.68,0,1.51.08,1.96,1.06v-9.21Z"/></g></svg>