<?xml version="1.0" encoding="UTF-8"?><svg id="_レイヤー_2" xmlns="http://www.w3.org/2000/svg" viewBox="0 0 100 100"><g id="_レイヤー_1-2"><path d="M28.58,20.2h2.49v-2.71c-.51.66-1.17.8-1.9.88-.29,1.03-.44,1.39-.59,1.83Z"/><path d="M43,44.07v2.12c.81,0,1.68.07,2.34-.07.59-.15.51-.59.51-2.05h-2.86Z"/><path d="M24.48,28.98h6.59v-1.76h-5.57c-.37.66-.59,1.1-1.02,1.76Z"/><path d="M50,0C22.39,0,0,22.39,0,50s22.39,50,50,50,50-22.39,50-50S77.61,0,50,0ZM58.68,18.29l10.33.44c.44,0,1.39.15,1.39.88,0,.51-.29.73-1.39,1.25v20.58c1.98.07,2.27.07,2.27-1.25v-23.95l11.5.44c.73,0,1.9.07,1.9,1.25,0,.51-.37.8-1.46,1.54v23.87c0,7.1-2.05,8.71-10.84,8.71-1.61,0-3-.07-4.17-.15-.07-3.81-.88-6.22-2.2-9.08h-7.32v-24.53ZM80.06,84.05c-6.15-1.68-16.04-6.08-22.41-11.57-.37,1.17-.51,2.42-1.24,7.98-9.3,1.32-17.5,2.42-26.8,3.44-.51,1.03-.88,1.61-1.46,1.61s-.95-.44-1.02-.95l-1.76-9.45c2.56-.29,6.3-.59,8.93-.81v-2.64c-4.91,1.83-9.89,3.3-13.47,4.39-2.34-6.22-4.39-8.13-5.56-9.23,2.64-.15,8.35-.59,16.7-3.44h-15.23v-9.67h31.56v-1.61c-1.54.15-2.05.15-3.08.15-.22-1.54-.44-2.42-2.2-5.93v5.86h-11.94v-8.13h-2.34v7.84h-9.96v-13.84h12.3v-1.76h-14.35v-7.32h4.76c-.88-.51-3.59-1.9-6.44-2.78,1.24-1.68,3.95-5.05,5.64-11.06l9.52,1.1c.51.07.73.22.88.51v-.81l11.94.29c1.02,0,1.54.15,1.54.81,0,.51-.15.59-1.54,1.32v1.46h13.11v7.4h-13.11v1.76h14.06v7.32h-14.06v1.76h13.11v9.15l4.91.37c.44,0,1.54.07,1.54.95,0,.51-.29.73-1.83,1.54v3.66h24.17v9.67h-6.44l3,2.27c.44.29.66.51.66.95,0,1.32-1.46,1.03-2.05.95-1.03,1.25-1.39,1.68-3.59,3.66,5.57,2.2,8.2,2.56,9.89,2.86-3.44,4.1-4.32,5.42-6.3,9.96Z"/><path d="M67.46,66.33c.95-.95,2.05-2.2,2.71-2.93h-6.37c1.02.88,1.9,1.61,3.66,2.93Z"/><path d="M50.55,64.87c-1.39.73-1.98.95-4.17,2.05v6c4.83-.66,5.86-.81,10.18-1.46-2.93-2.56-4.98-5.27-6-6.59Z"/></g></svg>