<?xml version="1.0" encoding="UTF-8"?><svg id="_レイヤー_2" xmlns="http://www.w3.org/2000/svg" viewBox="0 0 100 100"><defs><style>.cls-1{fill:#fff;}</style></defs><g id="_レイヤー_1-2"><circle cx="50" cy="50" r="50"/><path class="cls-1" d="M43.67,22.72v-9.02l14.5,1.18c1.33.08,1.88.47,1.88,1.25,0,.71-.16.78-1.88,1.8v36.46c0,6.9-.86,21.95-14.58,32.3-2.04-2.04-5.17-5.02-10.82-7.92v8h-14.35v-31.44c-.39.39-.39.47-1.33,1.57-.86-3.84-3.61-11.21-5.49-14.27,6.51-10.35,10.27-24.23,10.66-29.4l13.88,2.74c.55.08,1.65.31,1.65,1.33,0,1.1-1.25,1.57-2.12,1.8-.63,1.96-3.84,11.37-4.16,12.39l1.25.08c.78.08,1.49.08,1.96.94v-9.8h8.94ZM43.67,51.02h-8.94v-12.47h8.94v-3.06h-8.94v-1.88c-.08.31-.16.55-.31.63-.24.16-1.41.63-1.65.78v19.83c3.61-.16,7.37-.86,10.9-1.57v-2.27ZM32.77,59.96v17.17c2.82-1.8,6.98-5.41,9.56-11.21-1.33.55-2.27.94-4.94,1.8-.16,1.02-.39,2.51-1.65,2.51-.63,0-.86-.47-1.02-1.1l-1.96-9.17ZM87.18,22.72v12.78h-12.23v6.27h10.66v12.62h-10.66v6.19h12.23v13.09h-12.23v13.01h-14.35V13.78l14.97.47c1.18,0,1.65.39,1.65,1.18,0,1.18-.71,1.33-2.27,1.8v5.49h12.23Z"/></g></svg>