<?xml version="1.0" encoding="UTF-8"?><svg id="_レイヤー_2" xmlns="http://www.w3.org/2000/svg" viewBox="0 0 100 100"><defs><style>.cls-1{fill:#fff;}</style></defs><g id="_レイヤー_1-2"><circle cx="50" cy="50" r="50"/><path class="cls-1" d="M56.57,28.01v7.55h-14.49v1.81h13.51v9.43l5.06.38c.45,0,1.58.08,1.58.98,0,.53-.3.75-1.89,1.58v3.77h24.9v9.96h-6.64l3.09,2.34c.45.3.68.53.68.98,0,1.36-1.51,1.06-2.11.98-1.06,1.28-1.43,1.74-3.7,3.77,5.73,2.26,8.45,2.64,10.19,2.94-3.55,4.23-4.45,5.58-6.49,10.26-6.34-1.74-16.52-6.26-23.09-11.92-.38,1.21-.53,2.49-1.28,8.22-9.58,1.36-18.03,2.49-27.62,3.55-.53,1.06-.91,1.66-1.51,1.66s-.98-.45-1.06-.98l-1.81-9.73c2.64-.3,6.49-.6,9.21-.83v-2.72c-5.06,1.89-10.19,3.4-13.88,4.53-2.41-6.41-4.53-8.38-5.73-9.51,2.72-.15,8.6-.6,17.2-3.55h-15.69v-9.96h32.52v-1.66c-1.58.15-2.11.15-3.17.15-.23-1.58-.45-2.49-2.26-6.11v6.04h-12.3v-8.38h-2.41v8.07h-10.26v-14.26h12.68v-1.81h-14.79v-7.55h4.9c-.91-.53-3.7-1.96-6.64-2.87,1.28-1.74,4.07-5.21,5.81-11.39l9.81,1.13c.53.08.75.23.91.53v-.83l12.3.3c1.06,0,1.58.15,1.58.83,0,.53-.15.6-1.58,1.36v1.51h13.51v7.62h-13.51v1.81h14.49ZM29.78,28.01v-1.81h-5.73c-.38.68-.6,1.13-1.06,1.81h6.79ZM29.78,16.16c-.53.68-1.21.83-1.96.91-.3,1.06-.45,1.43-.6,1.89h2.57v-2.79ZM42.08,45.74c.83,0,1.74.08,2.41-.08.6-.15.53-.6.53-2.11h-2.94v2.19ZM45.55,73.28c4.98-.68,6.04-.83,10.49-1.51-3.02-2.64-5.13-5.43-6.19-6.79-1.43.75-2.04.98-4.3,2.11v6.19ZM71.2,14.88l11.85.45c.75,0,1.96.08,1.96,1.28,0,.53-.38.83-1.51,1.58v24.6c0,7.32-2.11,8.98-11.17,8.98-1.66,0-3.09-.08-4.3-.15-.08-3.92-.91-6.41-2.26-9.36h-7.55v-25.28l10.64.45c.45,0,1.43.15,1.43.91,0,.53-.3.75-1.43,1.28v21.2c2.04.08,2.34.08,2.34-1.28V14.88ZM63.51,63.47c1.06.91,1.96,1.66,3.77,3.02.98-.98,2.11-2.26,2.79-3.02h-6.56Z"/></g></svg>