<?xml version="1.0" encoding="UTF-8"?><svg id="_レイヤー_2" xmlns="http://www.w3.org/2000/svg" viewBox="0 0 48.45 32.7"><g id="_レイヤー_1-2"><path d="M9.31,32.53c-.75-.21-2.04-.86-2.85-1.42-2.87-2.02-5.07-5.71-6-10.1-.33-1.55-.46-2.88-.46-4.55C0,11.14,1.78,6.26,4.84,3.17,7,1,9.21,0,11.88,0s5.18,1.14,7.35,3.5c2.06,2.25,3.45,5.16,4.15,8.71.36,1.83.49,4.62.3,6.47-.45,4.37-2.1,8.26-4.61,10.87-1.43,1.49-2.98,2.5-4.52,2.95-.62.18-1,.21-2.71.2-1.42,0-2.14-.05-2.53-.16h0ZM13.51,31.05c1.03-.23,2.41-.9,3.3-1.6,2.48-1.95,4.3-5.36,5.09-9.57.32-1.72.32-5.08,0-6.88-.62-3.46-1.86-6.18-3.78-8.27-1.28-1.4-2.36-2.15-3.91-2.72-.74-.27-.89-.29-2.33-.29-1.47,0-1.57.02-2.41.33-1.48.56-2.56,1.29-3.7,2.52-1.09,1.18-1.64,2-2.42,3.61-.36.76-.98,2.42-.98,2.64,0,.02.28-.26.62-.62,1.12-1.17,2.57-1.73,3.92-1.5,2.04.34,3.86,2.33,4.57,5,.96,3.59-.12,7.72-2.48,9.54-1.97,1.52-4.36,1.25-6.14-.69-.27-.29-.49-.51-.49-.48,0,.19.56,1.7.92,2.51.87,1.91,2.28,3.8,3.65,4.88,1.94,1.53,4.34,2.11,6.56,1.6h0ZM5.9,13.52c.29-.3.34-.42.34-.84s-.05-.54-.34-.84c-.29-.3-.4-.35-.8-.35s-.51.05-.8.35c-.28.3-.34.43-.34.81,0,.76.44,1.19,1.22,1.21.31,0,.45-.06.72-.35h0ZM34.19,32.5c-.35-.11-1.09-.43-1.63-.72-6.27-3.36-9.25-13.28-6.6-21.9,1.03-3.32,2.93-6.2,5.24-7.92,1.09-.81,1.7-1.13,2.94-1.56.85-.29,1.17-.34,2.29-.39,2.26-.09,3.86.38,5.83,1.72.93.63,2.74,2.55,3.44,3.65,1.17,1.83,2.06,4.02,2.55,6.24.18.83.2,1.26.2,4.79s-.02,3.97-.2,4.84c-.99,4.71-3.62,8.66-7,10.51-1.54.84-2.08.96-4.43.95-1.62,0-2.1-.04-2.63-.2h0ZM38.5,31.05c1.65-.38,3.24-1.36,4.57-2.82,1.95-2.14,3.13-4.71,3.82-8.28.19-1.01.22-1.48.22-3.54,0-2.19-.02-2.49-.27-3.73-.8-3.96-2.43-7.04-4.77-9.01-.92-.77-1.76-1.26-2.87-1.66-.73-.27-.91-.29-2.28-.29-1.43,0-1.52,0-2.43.33-.52.19-1.32.58-1.78.87-1.03.66-2.62,2.28-3.36,3.44-.58.91-1.6,3.07-1.78,3.76-.06.25-.14.52-.18.62-.03.09.22-.14.57-.51,2.9-3.1,7.1-1.44,8.46,3.33,1.12,3.95-.24,8.5-3.02,10.08-1.86,1.06-3.89.66-5.54-1.09-.28-.29-.5-.51-.5-.49,0,.18.56,1.71.92,2.5,2.19,4.84,6.22,7.39,10.22,6.48h0ZM30.88,13.52c.29-.3.34-.42.34-.84s-.05-.54-.34-.84c-.97-1.02-2.46.25-1.74,1.49.23.39.48.52,1.02.53.31,0,.45-.06.72-.35h0Z"/></g></svg>