<?xml version="1.0" encoding="UTF-8"?><svg id="_レイヤー_2" xmlns="http://www.w3.org/2000/svg" viewBox="0 0 1000 999.94"><defs><style>.cls-1{fill:#040000;}</style></defs><g id="_レイヤー_1-2"><path class="cls-1" d="M497.62,816.93c-13.89-127.21-87.27-303.24-189-316.43,22.75-21.21,53.61-31.43,84.51-27.99,25.03-48.58,68.48-66.53,118.49-61.79,52.23,4.95,106.79,52.95,139.5,120.65,24.98,51.72,54.62,83.99,87.32,101.03,21.97,11.44,48.83,7.18,66.18-10.49l177.39-180.75c16.29-16.6,22.16-41.4,14.96-63.86-7.2-22.46-25.94-38.86-48.67-42.38l-272.13-41.4-121.77-258.37c-10.04-21.48-31.25-35.15-54.54-35.15s-44.31,13.67-54.54,35.15l-121.77,258.37-271.94,41.4c-22.72,3.52-41.66,19.92-48.67,42.38-7.01,22.46-1.33,47.26,14.96,63.86l197.33,201.34-46.59,284.54c-3.79,23.43,5.68,47.26,24.43,61.13,18.75,13.87,43.56,15.62,64.01,4.49l209.69-116.36c21.27-11.8,33.48-35.2,30.84-59.38Z"/></g></svg>